<svg xmlns="http://www.w3.org/2000/svg" viewBox="0 0 301.39 133.06"><defs><style>.cls-1{fill:#06326b;fill-rule:evenodd;}</style></defs><title>LogoTecNM_Horizontal</title><g id="Capa_2" data-name="Capa 2"><g id="Capa_1-2" data-name="Capa 1"><path class="cls-1" d="M11.5,13.29a76.45,76.45,0,0,0-10,3.43V28.86c0,3.48-.34,2.69,3.31,2.81,19.68.65,30.21,3.3,45,12.42a26.23,26.23,0,0,0-3.23-10.38C36.64,26.5,27.34,23,15.17,22.12c34.5-8.24,65.46,24.84,54,59-2.78-.74-8.47-3-13.72,1.47,2.55,7.08.52,18.16-9,17.51.33,3.27-1.43,7.69-6.22,11.24-6.68,4.09-17,5.47-22.15,2.4-6.39,1-11-.85-16.57-3.56V116a30.78,30.78,0,0,0,10,3.87L14,131.19a3.38,3.38,0,0,0,3.29,1.87h17a3.39,3.39,0,0,0,3.1-1.87l2.44-11.6a53.18,53.18,0,0,0,6.63-2.22l8.8,7.76a3.22,3.22,0,0,0,3.59-.4l12.93-9.57a3.53,3.53,0,0,0,1.36-3.32L68.35,101.2a55.21,55.21,0,0,0,4.05-5.68l11.74,1.11c1.23,0,2.08-.8,2.62-2.43l4.85-15.35a3,3,0,0,0-.8-3.45L80.59,69.6a56.21,56.21,0,0,0,0-7l10.13-6c1.11-.59,1.26-1.85.65-3.6L86.25,37.78a2.62,2.62,0,0,0-2.61-2.29L71.91,36.82a52.87,52.87,0,0,0-4.15-5.62l4.66-10.77A2.65,2.65,0,0,0,71,17.16L57.88,7.84c-1.25-.87-2.46-1.13-3.59-.33l-8.66,7.9A53.74,53.74,0,0,0,39,13.31L36.4,1.82C36,.48,35-.09,33.2,0h-16c-1.88.06-2.73.83-3.12,1.84ZM30.4,62.56h1.46a.29.29,0,0,1,.28.28v.56a.28.28,0,0,1-.28.28H30.4a.27.27,0,0,1-.28-.28v-.56a.28.28,0,0,1,.28-.28m3.82-24.51a4.6,4.6,0,1,1-5.62,3.26,4.61,4.61,0,0,1,5.62-3.26m1,1.93a1.38,1.38,0,1,1-1.69,1,1.38,1.38,0,0,1,1.69-1M31.13,59.79a3.33,3.33,0,1,1-3.33,3.33,3.33,3.33,0,0,1,3.33-3.33m0,1.64a1.69,1.69,0,1,1-1.69,1.69,1.69,1.69,0,0,1,1.69-1.69m8.75-20.16c3.32,1.41,6.76,2.92,9.93,4.62,0,.72-.11,1.47-.17,2.2a43.25,43.25,0,0,1-1.26,5.23c-4.89-2.13-13.29-2.44-18.54-1a9.57,9.57,0,0,1-4.91-10.22l1.22.36A6.91,6.91,0,0,0,40,42.22a7.45,7.45,0,0,0-.07-.95M36,63c-.05-3-2.37-4.78-5.22-5.32a34.53,34.53,0,0,0-8.62-.44c6.11-5,18.67-5.11,25.43-2.4A12.47,12.47,0,0,0,36,63M1.82,36.26c-.59,0-.71-2.9.1-2.88,9.42.23,17.4.81,26.6,3.7a6.81,6.81,0,0,0-2.23,3.72C18.19,38,10.25,37,1.82,36.26m.08,5c-.71-.11-.71-3.62,0-3.54,7.35,1,14.29,1.72,21.47,3.84A11.34,11.34,0,0,0,23.26,46,166.4,166.4,0,0,0,1.9,41.27m0,6.33c-.59-.18-1-4.56.15-4.37,7.34,1.31,14.49,2.43,21.69,4.48a15.62,15.62,0,0,0,3.55,5.46C23.11,54.67,8.1,49.44,1.9,47.6m.16,10.47c-.59,0-1.82-8.83.41-8.2,7,2,14.26,4.12,21.27,4.9a18.41,18.41,0,0,0-3.47,2.46c-2.43,0-4.84,0-7.22.11-3.67.14-7.33.46-11,.73m.12,6.18c-1.26,0-1.21-4.56,0-4.7A137.36,137.36,0,0,1,28.54,59a4.92,4.92,0,0,0-1,7.54A104.36,104.36,0,0,0,2.18,64.25m-.71,9.11V66.88A.87.87,0,0,1,2.13,66a71.07,71.07,0,0,1,14.93.22l.34,0a115.22,115.22,0,0,0-14.77,8,.9.9,0,0,1-1,0c-.25-.18-.16-.52-.16-.84m36,.85a15.75,15.75,0,0,1-4.65-6.46,5,5,0,0,0,2.77-2.47A11.93,11.93,0,0,0,37.43,73a7.81,7.81,0,0,0,.53.75c.57.66.17,1-.54.46M16.52,110.1c-5.29.34-14.53-.24-16.52-6.28a163.57,163.57,0,0,1,22.27-37q1.05.16,2.1.36c-5.92,14-7.6,27.8-7.85,42.9m-14-17.86C.72,93.37-1.4,79.5,2.47,76.61c4.27-3,8.33-5.52,13-8.43l3-1.86q1,.11,1.95.24L18.5,68.67c-5.6,6.16-12.06,17.12-16,23.57M54,53.65c1.33.46-.26,4.86-1.23,4.6a3.42,3.42,0,0,0-2.79.63,42.82,42.82,0,0,1,2.85,7.3c.2.87.44,3-.54,3.54-.68.4-1.84.29-3.42.48l-.23,1.64c.11.23.41.32.39.48a1.6,1.6,0,0,1-1.6,1.11c.14.55.54.79.39,1.63-.09.53-1.07.61-1.72,1s-.34.55-.73.59l-.26,0c-9.19-1.61-9.51-13.21-2.62-17.66l2.1.69c.6.19.54.24-.12.45a5.3,5.3,0,0,1-.83.19c-.73.15-.8.14-.05.4s1.92.51,2.55.74c.33.11.32.22.57-.12a1.29,1.29,0,0,0,.07-1.3,2.14,2.14,0,0,0,1.19-.23c.66-.39.44-.63-.25-.59a4.33,4.33,0,0,1-1.34.05l-2.93-.83a8.51,8.51,0,0,1,5.85-1.88l1.09-4.07ZM46.82,78.73c2.79,2.39,7,.64,4.71,2.38C44,86.85,32.85,76.87,31.36,68.51c.33,0,.66,0,1,0,1.55,3.38,2,4.72,5.28,7.17a10.4,10.4,0,0,0,5.87,2.19c2,.18,1.71-.51,3.32.86M65.58,49.27C67.43,54,67.23,60.44,63,63c-1.45.9-2-.09-1-1.2.82-.85.79-2.64.52-3.58-1.09-3.89-8.33-6.42-11.77-7.47A21.6,21.6,0,0,0,49.42,36.3c6.88,2,13.44,6,16.16,13m-44.34,62.2c-1.09-11.77-.42-33.22,4.69-44,1.14.23,2.24.58,3.42.78,0,.19-.11,1.57-.12,1.7-1,15.88,5.23,26,14.43,30.58-1,10.33-14.08,12.64-22.42,10.92M53.67,83.65C55.84,87.34,52.56,97.19,48,98,36.19,95.49,29,79.48,30.09,68.39l.5.06A13.87,13.87,0,0,0,31,70.24C33.18,79,44.05,88.49,53.67,83.65"/><path class="cls-1" d="M145.92,62.23V49.7h-3.86V46.39h10.61V49.7h-3.84V62.23Zm104.9-10.45V47.35a5.39,5.39,0,0,0-8.25.94,10,10,0,0,0-1.8,6A9.48,9.48,0,0,0,243.19,61a5.28,5.28,0,0,0,7.63.21v-4c-1.68,1.84-4.4,3-6.14.58a5.87,5.87,0,0,1-1-3.52,6,6,0,0,1,1-3.56c1.44-2.05,3.63-1.65,5.19-.05Zm-35.48-7.1,1-1.33-.71-.93-1.72,2.23Zm-41.79,7.1V47.35a5.38,5.38,0,0,0-8.24.94,10,10,0,0,0-1.81,6A9.49,9.49,0,0,0,165.93,61a5.27,5.27,0,0,0,7.62.21v-4c-1.67,1.84-4.4,3-6.14.58a5.94,5.94,0,0,1-1-3.52,6.08,6.08,0,0,1,1-3.56c1.45-2.05,3.64-1.65,5.19-.05Zm60.14,3V53.44h-5.17v3.22h2.3V59a4.3,4.3,0,0,1-1.57.34c-2.28,0-3.7-2.21-3.7-5.11a5.73,5.73,0,0,1,1.08-3.56,3.24,3.24,0,0,1,4.46-.9,6.65,6.65,0,0,1,1.69,1.62l.31-4a6.8,6.8,0,0,0-1.87-1.16,5.75,5.75,0,0,0-6.75,2,9.61,9.61,0,0,0-1.86,6.07c0,4.87,2.71,8.42,6.44,8.42a8.66,8.66,0,0,0,4.64-1.61Zm2.44,7.48H239V46.39h-2.91ZM201.45,47.71V62.23h7.64v-3.4h-4.73V46.39h-2.91Zm-25.94,0V62.23h2.68V53.59l7.09,8.64H186V46.39h-2.68v8.73l-7.14-8.73h-.71Zm-21,0V62.23h7.56V58.9H157.3V55.77H160V52.52H157.3V49.65H162V46.39h-7.5Zm33,6.6c0-4.61,2.63-8.44,6.2-8.44s6.2,3.83,6.2,8.44-2.58,8.44-6.2,8.44-6.2-3.88-6.2-8.44m3,0c0,2.45,1.19,4.85,3.21,4.85S197,56.78,197,54.31s-1.16-4.88-3.21-4.88-3.21,2.42-3.21,4.88m18.42,0a11.28,11.28,0,0,1,.46-3.29c.93-3.09,3.18-5.15,5.74-5.15,3.64,0,6.19,3.87,6.19,8.44s-2.61,8.44-6.19,8.44-6.2-3.92-6.2-8.44m3,0c0,2.45,1.19,4.85,3.22,4.85s3.21-2.38,3.21-4.85-1.17-4.88-3.21-4.88-3.22,2.42-3.22,4.88m46-8.44c2.53,0,4.83,2.05,5.74,5.13a11.37,11.37,0,0,1,.46,3.31c0,4.58-2.58,8.44-6.2,8.44s-6.19-3.9-6.2-8.41,2.58-8.47,6.2-8.47m-3.21,8.44c0,2.45,1.18,4.85,3.21,4.85s3.21-2.38,3.21-4.85-1.16-4.88-3.21-4.88-3.21,2.42-3.21,4.88"/><path class="cls-1" d="M286.36,75.3c-1.64-1.59-3.93-2-5.45,0a6.48,6.48,0,0,0,0,7c1.81,2.39,4.68,1.25,6.44-.59v4a5.75,5.75,0,0,1-8-.21c-3.13-3-3.41-9.14-.65-12.65a5.86,5.86,0,0,1,8.65-.93v4.4ZM253.13,70l.61-.76-.74-.93L251.63,70Zm19.22,2.34V86.8h3V71.06h-3Zm-10.09,6.29-4.58,8.15H261L264,81.46l3.1,5.34h3.75l-5-8.47,4.11-7.27h-3.31l-2.48,4.49-2.63-4.49h-2.95Zm-13.61-6.29V86.8h7.94V83.49h-5V80.37h3V77.15h-3V74.3h4.9V71.06h-7.85Zm-13.83-1.31L232.21,86.8h2.72l1.12-7.3,3.37,7.3h.78l3.15-7.19,1.09,7.19h2.89l-2.58-15.74h-.54l-4.32,9.73-4.57-9.73Zm56.69,7.87c0,2.44,1.25,4.83,3.37,4.83s3.37-2.37,3.37-4.83-1.22-4.84-3.37-4.84-3.37,2.41-3.37,4.84m-3.13,0c0-4.51,2.71-8.38,6.5-8.38s6.51,3.85,6.51,8.38-2.75,8.39-6.51,8.39-6.5-3.89-6.5-8.39"/><path class="cls-1" d="M204,72.14V86.5h3.37a7.22,7.22,0,0,0,4.45-1.17A7.72,7.72,0,0,0,215,78.68a7.94,7.94,0,0,0-2-5.74,7.34,7.34,0,0,0-5.57-2.09H204Zm12.65,0V86.5h7.89V83.21h-4.95v-3.1h3.22V76.9h-3.22V74.07h4.88V70.85h-7.82ZM186.83,86.5h8V83.14h-4.95V70.85h-3Zm-14,0h3.05l.82-2.28h5.15l.81,2.28h3.17l-6.14-15.65h-.58Zm4.75-5,1.69-4.91L181,81.53ZM161,72.14V86.5h2.79V78l7.37,8.49H172V70.85h-2.8v8.63l-7.46-8.63H161Zm-19,0V86.5h3V70.85h-3Zm-3.49,2.93c-1.63-1.59-3.91-2-5.42,0a5.76,5.76,0,0,0-1,3.52,5.59,5.59,0,0,0,1,3.49c1.82,2.38,4.66,1.24,6.41-.59v4a5.73,5.73,0,0,1-8-.2A9.11,9.11,0,0,1,129,78.68a9.55,9.55,0,0,1,1.88-6,5.83,5.83,0,0,1,8.61-.92v4.37ZM116.67,86.5h3l.82-2.28h5.15l.8,2.28h3.18l-6.15-15.65H123Zm4.75-5,1.69-4.91,1.65,4.91Zm-16.65,5V70.85h.71L113,79.48V70.85h2.8V86.5h-.83L107.56,78V86.5Zm42-7.82c0-4.57,2.74-8.35,6.47-8.35s6.47,3.82,6.47,8.35S157,87,153.23,87s-6.47-3.81-6.47-8.33m3.11,0c0,2.41,1.25,4.79,3.36,4.79s3.35-2.36,3.35-4.79-1.21-4.83-3.35-4.83-3.36,2.39-3.36,4.83M207,83.14v-9h.67a4,4,0,0,1,3.1,1.19,4.62,4.62,0,0,1,1.13,3.3A4.56,4.56,0,0,1,210.78,82a4.05,4.05,0,0,1-3.1,1.19Z"/></g></g></svg>